<?xml version="1.0" encoding="utf-8"?>
<!-- Generator: Adobe Illustrator 19.0.0, SVG Export Plug-In . SVG Version: 6.00 Build 0)  -->
<svg version="1.1" id="Layer_1" xmlns="http://www.w3.org/2000/svg" xmlns:xlink="http://www.w3.org/1999/xlink" x="0px" y="0px"
	 viewBox="-88 125 434 543" style="enable-background:new -88 125 434 543;" xml:space="preserve">
<style type="text/css">
	.st0{fill:#2C2B2C;}
</style>
<title>jrf</title>
<desc>Created with Sketch.</desc>
<g id="WEB">
	<g id="Desktop_menu" transform="translate(0.000000, -723.000000)">
		<g id="jrf" transform="translate(0.000000, 723.000000)">
			<path id="Fill-61" class="st0" d="M272.1,297.1c14.9-5.2,26.9-13.6,35.8-25.1c11.8-15.1,17.8-33.5,17.8-54.7
				c0-17.3-3.3-32.1-9.9-44.2c-6.6-12.1-15.6-21.8-26.9-29c-10.9-6.9-23.5-11.9-37.7-14.8c-13.5-2.8-28-4.2-43-4.2H88v119.3v157.6
				v18.8c0,11.4-1.1,22.7-3.1,33.5C83,464,79.3,472.7,74,480.2c-5.1,7.2-12.4,12.9-22.2,17.4c-10,4.6-23.6,6.9-40.5,6.9
				c-19.4,0-35.9-4.3-48.9-12.9c-12.6-8.3-25.9-28.9-25.9-51.7H-88c0,10.7,2.6,25.1,8.5,37.5c7,14.7,18.2,27.1,27.9,33.4
				c17.3,11.3,38.4,17.1,62.9,17.1c20.7,0,37.9-3.1,51.2-9.2C73,513.9,81.1,507.4,88,500v167h24.6V420.7v-18.8V244.3v-95.9h95.6
				c13.2,0,25.9,1.2,37.8,3.7c11.1,2.3,21,6.1,29.2,11.4c7.9,5.1,14.1,11.7,18.8,20.4c4.7,8.6,7.1,19.9,7.1,33.4
				c0,16.3-4.2,29.6-12.9,40.8c-8.4,10.8-20.6,17.4-37.3,20.4l-17.4,3.1l83.2,132.1H346L272.1,297.1z"/>
			<path id="Fill-62" class="st0" d="M197.8,235.5h-24v-37h28c5,0,10.1,0.4,15.3,1c4.4,0.6,8.3,1.7,11.6,3.2c2.6,1.2,4.7,3,6.4,5.4
				c1.4,1.9,2.2,5.2,2.2,9.5c0,4.5-0.8,7.8-2.3,9.7c-1.9,2.3-4.3,4-7.3,5.1c-3.8,1.4-8.2,2.3-13.1,2.6
				C208.7,235.3,203.1,235.5,197.8,235.5 M236.8,254.2c7.1-2.7,13-6.9,17.7-12.5c5-6.1,7.6-14.2,7.6-24.1c0-9.2-2.2-16.8-6.5-22.8
				c-4.1-5.7-9.4-10.1-15.7-13.1c-5.7-2.7-12.2-4.5-19.3-5.5c-6.4-0.8-12.6-1.2-18.7-1.2H149v84h48.8c5.8,0,11.9-0.2,18.4-0.6
				C223.6,258,230.6,256.6,236.8,254.2"/>
			<polygon id="Fill-63" class="st0" points="149,522 244.7,522 244.7,498.7 173.6,498.7 173.6,468.3 287,468.3 287,445 149,445 			
				"/>
			<path id="Fill-64" class="st0" d="M173.6,307.3h10.5l45.3,82.3h-56.7C173.6,374.4,173.6,349.1,173.6,307.3L173.6,307.3z
				 M149.1,295.7c0,0,0,103.3,0,105.6L149,413h121l-70.9-129h-50V295.7z"/>
			<polygon id="Fill-65" class="st0" points="149,668 173.7,668 173.7,576.4 245,576.4 245,553 149,553 			"/>
			<path id="Fill-66" class="st0" d="M26.4,245v170c0,8.8-0.1,17.5-2.6,26.1c-1.7,6.2-5.2,12.3-12.7,12.8c-5,0.3-9.4-2.3-12-6.2
				c-0.3-0.5-3-7.1-2.8-7.1H-29c0.7,3.7,1.6,7.4,2.9,10.8c5.7,15.6,20.6,26.5,38.3,25.5c10.7-0.6,20.5-5.6,27.2-13.5
				c8-9.4,10.5-22.2,11.3-34c0.4-4.8,0.3-9.7,0.3-14.5V245H26.4z"/>
		</g>
	</g>
</g>
</svg>
