<?xml version="1.0" encoding="UTF-8"?>
<svg width="100px" height="49px" viewBox="0 0 100 49" version="1.1" xmlns="http://www.w3.org/2000/svg" xmlns:xlink="http://www.w3.org/1999/xlink">
    <!-- Generator: Sketch 46.2 (44496) - http://www.bohemiancoding.com/sketch -->
    <title>logo_menor</title>
    <desc>Created with Sketch.</desc>
    <defs>
        <polygon id="path-1" points="0 49.2805 100 49.2805 100 1.0005 0 1.0005"></polygon>
    </defs>
    <g id="WEB" stroke="none" stroke-width="1" fill="none" fill-rule="evenodd">
        <g id="Desktop_menu" transform="translate(-91.000000, -6.000000)">
            <g id="menu">
                <g id="logo_menor" transform="translate(91.000000, 5.000000)">
                    <path d="M30.4969,16.3274 C31.7569,15.8624 32.7749,15.1124 33.5339,14.0894 C34.5339,12.7444 35.0399,11.1044 35.0399,9.2144 C35.0399,7.6744 34.7589,6.3504 34.2049,5.2814 C33.6479,4.2064 32.8809,3.3364 31.9269,2.6944 C31.0079,2.0774 29.9329,1.6344 28.7299,1.3734 C27.5839,1.1264 26.3599,0.9994 25.0909,0.9994 L14.9079,0.9994 L14.9079,11.6254 L14.9079,25.6604 L14.9079,27.3374 C14.9079,28.3564 14.8179,29.3594 14.6419,30.3184 C14.4799,31.1944 14.1689,31.9764 13.7199,32.6404 C13.2859,33.2824 12.6719,33.7884 11.8439,34.1874 C11.0009,34.5954 9.8479,34.8014 8.4119,34.8014 C6.7679,34.8014 5.3719,34.4144 4.2659,33.6514 C3.1989,32.9154 2.0749,31.0794 2.0729,29.0504 L-0.0001,29.0504 C-0.0001,30.0024 0.2229,31.2844 0.7229,32.3884 C1.3169,33.6994 2.2609,34.8004 3.0819,35.3674 C4.5439,36.3754 6.3369,36.8864 8.4119,36.8864 C10.1639,36.8864 11.6229,36.6104 12.7509,36.0664 C13.6339,35.6394 14.3239,35.0594 14.9079,34.4034 L14.9079,49.2804 L16.9929,49.2804 L16.9929,27.3374 L16.9929,25.6604 L16.9929,11.6254 L16.9929,3.0844 L25.0909,3.0844 C26.2119,3.0844 27.2889,3.1954 28.2899,3.4114 C29.2319,3.6154 30.0649,3.9564 30.7649,4.4244 C31.4339,4.8754 31.9549,5.4704 32.3549,6.2414 C32.7529,7.0104 32.9549,8.0114 32.9549,9.2144 C32.9549,10.6674 32.5969,11.8544 31.8599,12.8464 C31.1489,13.8044 30.1159,14.3984 28.7029,14.6614 L27.2259,14.9374 L34.2749,26.7034 L36.7579,26.7034 L30.4969,16.3274 Z" id="Fill-21" fill="#F09C22"></path>
                    <path d="M24.2234,10.7747 L22.1964,10.7747 L22.1964,7.4877 L24.5574,7.4877 C24.9774,7.4877 25.4094,7.5197 25.8504,7.5797 C26.2224,7.6297 26.5514,7.7257 26.8274,7.8627 C27.0464,7.9727 27.2234,8.1277 27.3684,8.3407 C27.4874,8.5127 27.5514,8.8037 27.5514,9.1807 C27.5514,9.5787 27.4834,9.8757 27.3544,10.0417 C27.1934,10.2497 26.9924,10.3987 26.7424,10.4977 C26.4224,10.6237 26.0534,10.7007 25.6404,10.7267 C25.1424,10.7577 24.6684,10.7747 24.2234,10.7747 M27.5084,12.4357 C28.1064,12.1997 28.6074,11.8247 28.9994,11.3227 C29.4224,10.7797 29.6364,10.0597 29.6364,9.1807 C29.6364,8.3677 29.4504,7.6867 29.0854,7.1567 C28.7404,6.6547 28.2924,6.2637 27.7584,5.9977 C27.2784,5.7577 26.7314,5.5947 26.1314,5.5137 C25.5944,5.4407 25.0704,5.4027 24.5574,5.4027 L20.1114,5.4027 L20.1114,12.8587 L24.2234,12.8587 C24.7114,12.8587 25.2294,12.8427 25.7734,12.8077 C26.4014,12.7687 26.9854,12.6437 27.5084,12.4357" id="Fill-24" fill="#F09C22"></path>
                    <polygon id="Fill-26" fill="#F09C22" points="20.1116 36.3108 28.2156 36.3108 28.2156 34.2258 22.1966 34.2258 22.1966 31.5068 31.7966 31.5068 31.7966 29.4218 20.1116 29.4218"></polygon>
                    <path d="M22.1966,17.263 L23.0926,17.263 L26.9396,24.618 L22.1216,24.618 C22.1896,23.254 22.1966,20.997 22.1966,17.263 L22.1966,17.263 Z M20.1116,16.221 C20.1116,16.221 20.1116,25.448 20.1106,25.651 L20.1036,26.703 L30.3816,26.703 L24.3546,15.178 L20.1116,15.178 L20.1116,16.221 Z" id="Fill-28" fill="#F09C22"></path>
                    <polygon id="Fill-30" fill="#F09C22" points="20.1116 49.2805 22.1966 49.2805 22.1966 41.1145 28.2156 41.1145 28.2156 39.0295 20.1116 39.0295"></polygon>
                    <path d="M9.7034,11.6258 L9.7034,26.7718 C9.7034,27.5588 9.6914,28.3278 9.4844,29.0968 C9.3364,29.6458 9.0444,30.1918 8.4094,30.2358 C7.9894,30.2658 7.6104,30.0278 7.3904,29.6808 C7.3614,29.6358 7.1364,29.0498 7.1564,29.0498 L5.0204,29.0498 C5.0794,29.3848 5.1564,29.7088 5.2634,30.0158 C5.7464,31.4018 7.0034,32.3718 8.5034,32.2898 C9.4064,32.2408 10.2404,31.7928 10.8044,31.0908 C11.4794,30.2508 11.6884,29.1108 11.7624,28.0618 C11.7924,27.6328 11.7884,27.2008 11.7884,26.7718 L11.7884,11.6258 L9.7034,11.6258 Z" id="Fill-32" fill="#F09C22"></path>
                    <path d="M44.3499,22.6365 L42.8939,26.3625 L45.7969,26.3625 L44.3499,22.6365 Z M43.2899,19.7595 L45.3849,19.7595 L49.5579,30.6115 L47.4119,30.6115 L46.5629,28.3765 L42.1349,28.3765 L41.2519,30.6115 L39.1049,30.6115 L43.2899,19.7595 Z" id="Fill-34" fill="#121112"></path>
                    <path d="M52.4549,24.0012 L53.1019,24.0012 C53.7589,24.0012 54.2109,23.9152 54.4589,23.7422 C54.7059,23.5692 54.8299,23.2832 54.8299,22.8832 C54.8299,22.6472 54.7689,22.4412 54.6459,22.2662 C54.5239,22.0902 54.3599,21.9642 54.1539,21.8882 C53.9479,21.8122 53.5709,21.7732 53.0209,21.7732 L52.4549,21.7732 L52.4549,24.0012 Z M50.3899,19.7592 L52.5779,19.7592 C53.7759,19.7592 54.6299,19.8662 55.1389,20.0802 C55.6469,20.2942 56.0559,20.6492 56.3659,21.1462 C56.6749,21.6432 56.8299,22.2302 56.8299,22.9092 C56.8299,23.6232 56.6589,24.2192 56.3169,24.6982 C55.9749,25.1782 55.4599,25.5412 54.7709,25.7862 L57.3419,30.6112 L55.0839,30.6112 L52.6439,26.0152 L52.4549,26.0152 L52.4549,30.6112 L50.3899,30.6112 L50.3899,19.7592 Z" id="Fill-36" fill="#121112"></path>
                    <polygon id="Fill-38" fill="#121112" points="58.1141 19.7595 64.0381 19.7595 64.0381 21.7805 60.1651 21.7805 60.1651 23.7435 64.0381 23.7435 64.0381 25.7275 60.1651 25.7275 60.1651 28.5825 64.0381 28.5825 64.0381 30.6115 58.1141 30.6115"></polygon>
                    <mask id="mask-2" fill="white">
                        <use xlink:href="#path-1"></use>
                    </mask>
                    <g id="Clip-41"></g>
                    <polygon id="Fill-40" fill="#121112" mask="url(#mask-2)" points="65.816 30.6115 67.867 30.6115 67.867 19.7595 65.816 19.7595"></polygon>
                    <path d="M73.9568,22.6365 L72.5008,26.3625 L75.4038,26.3625 L73.9568,22.6365 Z M72.8968,19.7595 L74.9918,19.7595 L79.1648,30.6115 L77.0188,30.6115 L76.1698,28.3765 L71.7418,28.3765 L70.8588,30.6115 L68.7118,30.6115 L72.8968,19.7595 Z" id="Fill-42" fill="#121112" mask="url(#mask-2)"></path>
                    <path d="M86.1556,21.2351 L84.6256,22.5851 C84.0886,21.8371 83.5416,21.4641 82.9856,21.4641 C82.7136,21.4641 82.4926,21.5361 82.3196,21.6811 C82.1476,21.8261 82.0616,21.9901 82.0616,22.1721 C82.0616,22.3541 82.1226,22.5261 82.2456,22.6881 C82.4136,22.9041 82.9186,23.3691 83.7606,24.0821 C84.5496,24.7411 85.0266,25.1571 85.1946,25.3291 C85.6136,25.7521 85.9096,26.1571 86.0856,26.5431 C86.2596,26.9291 86.3476,27.3501 86.3476,27.8081 C86.3476,28.6981 86.0396,29.4331 85.4246,30.0141 C84.8086,30.5941 84.0066,30.8841 83.0166,30.8841 C82.2436,30.8841 81.5706,30.6951 80.9966,30.3161 C80.4236,29.9371 79.9316,29.3421 79.5236,28.5311 L81.2596,27.4831 C81.7816,28.4431 82.3826,28.9221 83.0626,28.9221 C83.4176,28.9221 83.7156,28.8181 83.9566,28.6121 C84.1976,28.4051 84.3186,28.1671 84.3186,27.8971 C84.3186,27.6511 84.2276,27.4041 84.0456,27.1591 C83.8626,26.9131 83.4616,26.5371 82.8406,26.0301 C81.6576,25.0661 80.8946,24.3221 80.5496,23.7981 C80.2046,23.2751 80.0326,22.7521 80.0326,22.2311 C80.0326,21.4781 80.3196,20.8331 80.8926,20.2941 C81.4666,19.7561 82.1746,19.4861 83.0166,19.4861 C83.5576,19.4861 84.0736,19.6121 84.5636,19.8631 C85.0536,20.1131 85.5846,20.5711 86.1556,21.2351" id="Fill-43" fill="#121112" mask="url(#mask-2)"></path>
                    <path d="M94.2127,23.9568 C94.7587,23.4898 95.0317,23.0768 95.0317,22.7178 C95.0317,22.5308 94.9697,22.3788 94.8467,22.2608 C94.7237,22.1428 94.5617,22.0828 94.3597,22.0828 C94.1727,22.0828 94.0147,22.1498 93.8847,22.2828 C93.7537,22.4148 93.6887,22.5698 93.6887,22.7478 C93.6887,23.1018 93.8627,23.5048 94.2127,23.9568 M95.4417,28.4378 C95.0617,28.0648 94.5267,27.4468 93.8367,26.5828 C93.1087,27.1878 92.7447,27.7168 92.7447,28.1688 C92.7447,28.3808 92.8437,28.5758 93.0427,28.7518 C93.2417,28.9298 93.4937,29.0178 93.7987,29.0178 C94.2357,29.0178 94.7837,28.8248 95.4417,28.4378 M98.1387,26.3478 L99.3697,27.7568 L98.8097,28.2648 L98.2577,28.7658 L99.9997,30.6108 L97.4957,30.6108 L96.7797,29.8738 C95.6387,30.5478 94.5797,30.8838 93.6007,30.8838 C92.7697,30.8838 92.0967,30.6408 91.5827,30.1538 C91.0687,29.6668 90.8117,29.0428 90.8117,28.2798 C90.8117,27.7048 90.9577,27.1618 91.2487,26.6498 C91.5397,26.1388 92.0387,25.6098 92.7447,25.0638 C92.0457,24.1238 91.6967,23.2928 91.6967,22.5698 C91.6967,22.0348 91.9277,21.5058 92.3907,20.9838 C92.8527,20.4628 93.5047,20.2018 94.3457,20.2018 C95.1957,20.2018 95.8487,20.4598 96.3037,20.9768 C96.7587,21.4938 96.9867,22.0148 96.9867,22.5408 C96.9867,22.9538 96.8817,23.3498 96.6727,23.7278 C96.4637,24.1068 95.9837,24.6678 95.2307,25.4108 C96.1117,26.4478 96.6797,27.0948 96.9357,27.3508 C97.0927,27.2328 97.4937,26.8978 98.1387,26.3478" id="Fill-44" fill="#121112" mask="url(#mask-2)"></path>
                    <path d="M42.0447,41.388 L42.0447,44.169 L42.5627,44.169 C43.4207,44.169 43.9987,44.061 44.2967,43.845 C44.5957,43.628 44.7447,43.313 44.7447,42.9 C44.7447,42.433 44.5697,42.064 44.2197,41.794 C43.8697,41.523 43.2877,41.388 42.4737,41.388 L42.0447,41.388 Z M42.0447,37.257 L42.0447,39.544 L42.4967,39.544 C42.9997,39.544 43.3737,39.438 43.6187,39.226 C43.8627,39.015 43.9847,38.727 43.9847,38.363 C43.9847,38.024 43.8687,37.755 43.6367,37.555 C43.4047,37.356 43.0517,37.257 42.5777,37.257 L42.0447,37.257 Z M39.9787,46.139 L39.9787,35.287 L41.6857,35.287 C42.6747,35.287 43.3987,35.351 43.8567,35.479 C44.5067,35.651 45.0237,35.971 45.4077,36.438 C45.7927,36.905 45.9837,37.456 45.9837,38.09 C45.9837,38.503 45.8967,38.878 45.7227,39.215 C45.5477,39.552 45.2637,39.868 44.8697,40.163 C45.5287,40.473 46.0107,40.861 46.3157,41.325 C46.6207,41.79 46.7737,42.34 46.7737,42.974 C46.7737,43.584 46.6157,44.139 46.3007,44.641 C45.9857,45.143 45.5797,45.518 45.0827,45.766 C44.5857,46.014 43.8987,46.139 43.0217,46.139 L39.9787,46.139 Z" id="Fill-45" fill="#121112" mask="url(#mask-2)"></path>
                    <path d="M49.7401,39.5286 L50.3871,39.5286 C51.0441,39.5286 51.4971,39.4426 51.7441,39.2696 C51.9921,39.0966 52.1151,38.8106 52.1151,38.4116 C52.1151,38.1746 52.0541,37.9686 51.9321,37.7936 C51.8091,37.6176 51.6451,37.4926 51.4391,37.4156 C51.2331,37.3396 50.8561,37.3006 50.3061,37.3006 L49.7401,37.3006 L49.7401,39.5286 Z M47.6751,35.2866 L49.8631,35.2866 C51.0621,35.2866 51.9151,35.3936 52.4241,35.6076 C52.9321,35.8216 53.3411,36.1766 53.6511,36.6746 C53.9601,37.1706 54.1151,37.7576 54.1151,38.4376 C54.1151,39.1506 53.9441,39.7466 53.6021,40.2256 C53.2611,40.7056 52.7451,41.0686 52.0571,41.3146 L54.6281,46.1386 L52.3691,46.1386 L49.9291,41.5426 L49.7401,41.5426 L49.7401,46.1386 L47.6751,46.1386 L47.6751,35.2866 Z" id="Fill-46" fill="#121112" mask="url(#mask-2)"></path>
                    <polygon id="Fill-47" fill="#121112" mask="url(#mask-2)" points="55.547 46.1385 57.598 46.1385 57.598 35.2865 55.547 35.2865"></polygon>
                    <polygon id="Fill-48" fill="#121112" mask="url(#mask-2)" points="58.8519 35.2869 64.8499 35.2869 64.8499 37.3229 62.8729 37.3229 62.8729 46.1389 60.7769 46.1389 60.7769 37.3229 58.8519 37.3229"></polygon>
                    <path d="M69.428,38.1638 L67.972,41.8898 L70.875,41.8898 L69.428,38.1638 Z M68.367,35.2868 L70.463,35.2868 L74.636,46.1388 L72.49,46.1388 L71.64,43.9038 L67.212,43.9038 L66.329,46.1388 L64.183,46.1388 L68.367,35.2868 Z" id="Fill-49" fill="#121112" mask="url(#mask-2)"></path>
                    <path d="M81.6263,36.7625 L80.0963,38.1125 C79.5593,37.3655 79.0123,36.9915 78.4563,36.9915 C78.1853,36.9915 77.9633,37.0635 77.7913,37.2085 C77.6183,37.3535 77.5323,37.5175 77.5323,37.6995 C77.5323,37.8815 77.5933,38.0535 77.7173,38.2155 C77.8843,38.4315 78.3893,38.8965 79.2313,39.6105 C80.0203,40.2685 80.4983,40.6845 80.6663,40.8565 C81.0843,41.2795 81.3813,41.6845 81.5563,42.0705 C81.7303,42.4565 81.8183,42.8785 81.8183,43.3355 C81.8183,44.2255 81.5103,44.9605 80.8953,45.5415 C80.2793,46.1215 79.4773,46.4115 78.4873,46.4115 C77.7143,46.4115 77.0413,46.2225 76.4673,45.8435 C75.8943,45.4655 75.4033,44.8695 74.9943,44.0585 L76.7303,43.0115 C77.2523,43.9705 77.8543,44.4495 78.5333,44.4495 C78.8883,44.4495 79.1863,44.3455 79.4273,44.1395 C79.6683,43.9325 79.7893,43.6945 79.7893,43.4245 C79.7893,43.1785 79.6983,42.9325 79.5163,42.6865 C79.3343,42.4405 78.9323,42.0645 78.3113,41.5575 C77.1293,40.5935 76.3653,39.8495 76.0213,39.3255 C75.6763,38.8025 75.5033,38.2795 75.5033,37.7585 C75.5033,37.0055 75.7903,36.3605 76.3643,35.8215 C76.9373,35.2835 77.6453,35.0135 78.4873,35.0135 C79.0293,35.0135 79.5443,35.1395 80.0353,35.3905 C80.5243,35.6405 81.0553,36.0985 81.6263,36.7625" id="Fill-50" fill="#121112" mask="url(#mask-2)"></path>
                </g>
            </g>
        </g>
    </g>
</svg>